# xmcd
#
# Track frame offsets:
#	150
#	16718
#	30806
#	47716
#	62856
#	79766
#	101212
#	118505
#	135867
#	150464
#	165897
#	181978
#	198532
#	215254
#	230541
#	248454
#	262971
#	280664
#	296460
#
# Disc length: 4211 seconds
#
# Revision: 1
# Processed by: cddbd v1.5.2PL0 Copyright (c) Steve Scherf et al.
# Submitted via: audiograbber 1.83.01
#
DISCID=ea107113
DTITLE=Various Artist - Prime Cuts HP201106
DYEAR=2011
DGENRE=Pop
TTITLE0=Juke Kartel - If Only
TTITLE1=Jack Johnson - From The Clouds
TTITLE2=Doobie Brothers - Far From Home
TTITLE3=Hot Chelle Rae - Tonight Tonight
TTITLE4=Black Eyed Peas - Just Can't Get Enough
TTITLE5=Dr. Dre Feat. Eminem and Skylar Grey - I Need A Doctor
TTITLE6=Wiz Khalifa - Roll Up
TTITLE7=Jennifer Hudson - Where You At
TTITLE8=Jim Jones Feat Chink, Santana, and Logic - Perfect Day
TTITLE9=Jacob Lyda - I'm Doing Alright [Album Version]
TTITLE10=Ronnie Dunn - Bleed Red [Radio Edit]
TTITLE11=Steve Holy - Love Don't Run
TTITLE12=Foster The People - Pumped Up Kicks [Radio Edit]
TTITLE13=Airborne Toxic Event - Changing
TTITLE14=Cake - Long Time [Radio Edit]
TTITLE15=Far East Movement Feat. Ryan Tedder Of Onerepublic - Rocketeer [Bimbo 
TTITLE15=Jones Radio Mix]
TTITLE16=Emii - Mr. Romeo [Ralphi Rosario Radio Edit]
TTITLE17=Third Day - Make Your Move [Radio Edit]
TTITLE18=Laura Story - Blessings [Radio Edit]
EXTD=
EXTT0=
EXTT1=
EXTT2=
EXTT3=
EXTT4=
EXTT5=
EXTT6=
EXTT7=
EXTT8=
EXTT9=
EXTT10=
EXTT11=
EXTT12=
EXTT13=
EXTT14=
EXTT15=
EXTT16=
EXTT17=
EXTT18=
PLAYORDER=
